<svg width="100%" height="100%" viewBox="0 0 587 158" fill="none" xmlns="http://www.w3.org/2000/svg">
<rect width="586.129" height="158" rx="10" fill="white"/>
<path d="M151.846 96.8387V63.478H163.118C165.725 63.478 167.864 63.9233 169.536 64.8137C171.209 65.6934 172.447 66.9042 173.25 68.4463C174.054 69.9883 174.456 71.7422 174.456 73.7078C174.456 75.6734 174.054 77.4163 173.25 78.9367C172.447 80.457 171.214 81.6516 169.553 82.5203C167.891 83.3782 165.768 83.8072 163.184 83.8072H154.062V80.1584H163.053C164.834 80.1584 166.268 79.8977 167.354 79.3765C168.451 78.8552 169.243 78.1168 169.732 77.1611C170.231 76.1946 170.481 75.0435 170.481 73.7078C170.481 72.372 170.231 71.2046 169.732 70.2055C169.232 69.2065 168.434 68.4354 167.337 67.8924C166.241 67.3386 164.791 67.0617 162.988 67.0617H155.886V96.8387H151.846ZM167.549 81.8525L175.759 96.8387H171.068L162.988 81.8525H167.549Z" fill="black"/>
<path d="M190.888 97.36C188.477 97.36 186.397 96.8279 184.649 95.7636C182.911 94.6885 181.57 93.1899 180.626 91.2677C179.692 89.3347 179.225 87.0868 179.225 84.5239C179.225 81.9611 179.692 79.7023 180.626 77.7475C181.57 75.7819 182.884 74.2507 184.568 73.1539C186.262 72.0462 188.238 71.4924 190.497 71.4924C191.8 71.4924 193.087 71.7096 194.357 72.144C195.628 72.5784 196.785 73.2842 197.827 74.2616C198.87 75.2281 199.7 76.5095 200.319 78.1059C200.938 79.7023 201.248 81.6679 201.248 84.0027V85.6316H181.961V82.3086H197.338C197.338 80.8968 197.056 79.6371 196.491 78.5294C195.938 77.4217 195.145 76.5475 194.113 75.9068C193.092 75.2661 191.887 74.9458 190.497 74.9458C188.966 74.9458 187.641 75.3258 186.522 76.086C185.415 76.8353 184.562 77.8127 183.965 79.0181C183.368 80.2235 183.069 81.5158 183.069 82.895V85.1103C183.069 86.9999 183.395 88.6017 184.046 89.9157C184.709 91.2189 185.626 92.2125 186.799 92.8967C187.972 93.57 189.335 93.9066 190.888 93.9066C191.898 93.9066 192.81 93.7655 193.624 93.4831C194.45 93.1899 195.161 92.7555 195.758 92.18C196.356 91.5935 196.817 90.8659 197.143 89.9972L200.857 91.0397C200.466 92.2994 199.809 93.4071 198.886 94.3627C197.963 95.3075 196.823 96.046 195.465 96.5781C194.108 97.0994 192.582 97.36 190.888 97.36Z" fill="black"/>
<path d="M224.819 77.4217L221.365 78.3991C221.148 77.8236 220.828 77.2643 220.404 76.7213C219.992 76.1675 219.427 75.7114 218.71 75.353C217.993 74.9946 217.076 74.8154 215.957 74.8154C214.426 74.8154 213.15 75.1684 212.129 75.8743C211.119 76.5693 210.614 77.4543 210.614 78.5294C210.614 79.4851 210.962 80.2398 211.657 80.7937C212.352 81.3475 213.438 81.809 214.915 82.1783L218.629 83.0905C220.866 83.6334 222.533 84.4642 223.63 85.5827C224.726 86.6904 225.275 88.1185 225.275 89.8669C225.275 91.3003 224.862 92.5818 224.037 93.7112C223.222 94.8406 222.082 95.731 220.616 96.3826C219.15 97.0342 217.445 97.36 215.501 97.36C212.949 97.36 210.837 96.8061 209.165 95.6985C207.492 94.5908 206.433 92.9727 205.988 90.8442L209.637 89.932C209.984 91.2786 210.641 92.2885 211.608 92.9618C212.585 93.6351 213.861 93.9718 215.436 93.9718C217.228 93.9718 218.65 93.5917 219.704 92.8315C220.768 92.0605 221.3 91.1374 221.3 90.0623C221.3 89.1936 220.996 88.466 220.388 87.8795C219.78 87.2823 218.846 86.837 217.586 86.5438L213.416 85.5664C211.125 85.0235 209.441 84.1819 208.366 83.0416C207.302 81.8905 206.77 80.4516 206.77 78.7249C206.77 77.3132 207.166 76.0643 207.959 74.9783C208.763 73.8924 209.854 73.0399 211.233 72.4209C212.623 71.8019 214.198 71.4924 215.957 71.4924C218.433 71.4924 220.377 72.0354 221.789 73.1213C223.211 74.2073 224.221 75.6408 224.819 77.4217Z" fill="black"/>
<path d="M246.83 86.609V71.8182H250.674V96.8387H246.83V92.6035H246.569C245.983 93.874 245.07 94.9546 243.832 95.8451C242.594 96.7247 241.031 97.1645 239.141 97.1645C237.577 97.1645 236.187 96.8224 234.971 96.1383C233.755 95.4433 232.799 94.4007 232.104 93.0107C231.409 91.6098 231.062 89.8451 231.062 87.7167V71.8182H234.906V87.456C234.906 89.2804 235.416 90.7356 236.437 91.8216C237.469 92.9075 238.783 93.4505 240.379 93.4505C241.335 93.4505 242.307 93.2062 243.295 92.7175C244.294 92.2288 245.13 91.4795 245.803 90.4696C246.488 89.4596 246.83 88.1728 246.83 86.609Z" fill="black"/>
<path d="M257.715 96.8387V71.8182H261.429V75.7277H261.755C262.276 74.3919 263.118 73.3548 264.28 72.6164C265.442 71.8671 266.837 71.4924 268.466 71.4924C270.117 71.4924 271.491 71.8671 272.587 72.6164C273.695 73.3548 274.558 74.3919 275.177 75.7277H275.438C276.079 74.4354 277.04 73.4091 278.321 72.649C279.603 71.8779 281.139 71.4924 282.931 71.4924C285.168 71.4924 286.998 72.1928 288.421 73.5937C289.843 74.9838 290.555 77.1503 290.555 80.0932V96.8387H286.71V80.0932C286.71 78.2471 286.205 76.9276 285.195 76.1349C284.185 75.3421 282.996 74.9458 281.628 74.9458C279.869 74.9458 278.506 75.4779 277.539 76.5421C276.573 77.5955 276.09 78.9312 276.09 80.5493V96.8387H272.18V79.7023C272.18 78.2797 271.719 77.134 270.796 76.2652C269.872 75.3856 268.683 74.9458 267.228 74.9458C266.229 74.9458 265.295 75.2118 264.426 75.7439C263.568 76.2761 262.873 77.0145 262.341 77.9593C261.82 78.8932 261.559 79.9738 261.559 81.2009V96.8387H257.715Z" fill="black"/>
<path d="M308.074 97.36C305.663 97.36 303.583 96.8279 301.835 95.7636C300.097 94.6885 298.756 93.1899 297.811 91.2677C296.878 89.3347 296.411 87.0868 296.411 84.5239C296.411 81.9611 296.878 79.7023 297.811 77.7475C298.756 75.7819 300.07 74.2507 301.754 73.1539C303.448 72.0462 305.424 71.4924 307.683 71.4924C308.986 71.4924 310.273 71.7096 311.543 72.144C312.814 72.5784 313.971 73.2842 315.013 74.2616C316.056 75.2281 316.886 76.5095 317.505 78.1059C318.124 79.7023 318.434 81.6679 318.434 84.0027V85.6316H299.147V82.3086H314.524C314.524 80.8968 314.242 79.6371 313.677 78.5294C313.124 77.4217 312.331 76.5475 311.299 75.9068C310.278 75.2661 309.073 74.9458 307.683 74.9458C306.152 74.9458 304.827 75.3258 303.708 76.086C302.601 76.8353 301.748 77.8127 301.151 79.0181C300.554 80.2235 300.255 81.5158 300.255 82.895V85.1103C300.255 86.9999 300.581 88.6017 301.232 89.9157C301.895 91.2189 302.812 92.2125 303.985 92.8967C305.158 93.57 306.521 93.9066 308.074 93.9066C309.084 93.9066 309.996 93.7655 310.81 93.4831C311.636 93.1899 312.347 92.7555 312.944 92.18C313.542 91.5935 314.003 90.8659 314.329 89.9972L318.043 91.0397C317.652 92.2994 316.995 93.4071 316.072 94.3627C315.149 95.3075 314.009 96.046 312.651 96.5781C311.294 97.0994 309.768 97.36 308.074 97.36Z" fill="black"/>
<path d="M336.075 61.9142L325.324 101.856H321.806L332.557 61.9142H336.075Z" fill="black"/>
<path d="M367.998 73.9032H363.959C363.72 72.7413 363.302 71.7205 362.704 70.8408C362.118 69.9612 361.401 69.2227 360.554 68.6255C359.718 68.0173 358.79 67.5612 357.769 67.2572C356.748 66.9531 355.684 66.8011 354.576 66.8011C352.556 66.8011 350.726 67.3115 349.086 68.3323C347.458 69.3531 346.16 70.8571 345.193 72.8444C344.238 74.8317 343.76 77.2697 343.76 80.1584C343.76 83.047 344.238 85.485 345.193 87.4723C346.16 89.4596 347.458 90.9637 349.086 91.9845C350.726 93.0053 352.556 93.5157 354.576 93.5157C355.684 93.5157 356.748 93.3636 357.769 93.0596C358.79 92.7555 359.718 92.3048 360.554 91.7076C361.401 91.0994 362.118 90.3555 362.704 89.4759C363.302 88.5854 363.72 87.5646 363.959 86.4135H367.998C367.694 88.1185 367.141 89.6442 366.337 90.9908C365.533 92.3374 364.534 93.4831 363.34 94.4279C362.145 95.3618 360.804 96.0731 359.316 96.5618C357.839 97.0505 356.259 97.2948 354.576 97.2948C351.731 97.2948 349.2 96.5998 346.985 95.2098C344.77 93.8198 343.027 91.8433 341.756 89.2804C340.486 86.7176 339.85 83.6769 339.85 80.1584C339.85 76.6399 340.486 73.5992 341.756 71.0363C343.027 68.4734 344.77 66.497 346.985 65.107C349.2 63.7169 351.731 63.0219 354.576 63.0219C356.259 63.0219 357.839 63.2663 359.316 63.7549C360.804 64.2436 362.145 64.9604 363.34 65.9051C364.534 66.8391 365.533 67.9793 366.337 69.3259C367.141 70.6616 367.694 72.1874 367.998 73.9032Z" fill="black"/>
<path d="M375.895 63.478L385.799 91.561H386.19L396.094 63.478H400.329L388.079 96.8387H383.909L371.66 63.478H375.895Z" fill="black"/>
<path d="M528.153 56.7016C528.153 54.9396 526.73 53.5161 524.968 53.5161C523.206 53.5161 521.782 54.9396 521.782 56.7016V80.8615L514.476 73.5548C513.231 72.3105 511.21 72.3105 509.966 73.5548C508.722 74.7991 508.722 76.8199 509.966 78.0643L522.708 90.8062C523.952 92.0505 525.973 92.0505 527.218 90.8062L539.959 78.0643C541.204 76.8199 541.204 74.7991 539.959 73.5548C538.715 72.3105 536.694 72.3105 535.45 73.5548L528.153 80.8615V56.7016ZM505.855 88.5565C502.341 88.5565 499.484 91.4134 499.484 94.9274V98.1129C499.484 101.627 502.341 104.484 505.855 104.484H544.081C547.595 104.484 550.452 101.627 550.452 98.1129V94.9274C550.452 91.4134 547.595 88.5565 544.081 88.5565H533.977L529.467 93.0659C526.979 95.5546 522.947 95.5546 520.458 93.0659L515.959 88.5565H505.855ZM542.488 98.9093C541.164 98.9093 540.099 97.8441 540.099 96.5202C540.099 95.1962 541.164 94.131 542.488 94.131C543.812 94.131 544.877 95.1962 544.877 96.5202C544.877 97.8441 543.812 98.9093 542.488 98.9093Z" fill="#252525"/>
<rect x="10.1936" y="7.64516" width="119.774" height="142.71" rx="5" fill="#F5F5F1"/>
<path fill-rule="evenodd" clip-rule="evenodd" d="M109.581 58.9315V113.403C109.581 116.445 108.392 119.362 106.275 121.512C104.159 123.663 101.288 124.871 98.2951 124.871H92.6522V119.137H98.2951C99.7917 119.137 101.227 118.533 102.285 117.458C103.343 116.382 103.938 114.924 103.938 113.403V58.9315H92.6522C90.4074 58.9315 88.2544 58.0253 86.6671 56.4123C85.0797 54.7994 84.188 52.6117 84.188 50.3306V38.8629H53.1522C51.6557 38.8629 50.2204 39.467 49.1621 40.5423C48.1039 41.6176 47.5094 43.0761 47.5094 44.5968V96.2016H41.8665V44.5968C41.8665 41.5553 43.0556 38.6385 45.172 36.4879C47.2885 34.3372 50.1591 33.129 53.1522 33.129H84.188L109.581 58.9315ZM39.6094 101.075H30.5808V124.005H35.0443V116.31H39.5755C41.195 116.31 42.5719 115.983 43.7061 115.318C44.8516 114.647 45.7262 113.742 46.3187 112.6C46.9337 111.403 47.2459 110.069 47.2272 108.719C47.2272 107.285 46.9282 105.989 46.3357 104.837C45.7463 103.691 44.8453 102.742 43.74 102.102C42.6114 101.414 41.2402 101.075 39.6094 101.075V101.075ZM42.6847 108.719C42.7051 109.474 42.5403 110.223 42.2051 110.898C41.9044 111.485 41.4364 111.967 40.8621 112.279C40.2052 112.61 39.4786 112.771 38.746 112.75H35.0274V104.688H38.7517C39.9818 104.688 40.9467 105.032 41.6408 105.726C42.3349 106.425 42.6847 107.423 42.6847 108.719ZM49.5521 101.075V124.005H57.7907C60.0535 124.005 61.9325 123.546 63.4222 122.646C64.9298 121.73 66.107 120.345 66.7797 118.696C67.5133 116.975 67.8857 114.9 67.8857 112.48C67.8857 110.072 67.519 108.019 66.7797 106.316C66.1149 104.686 64.949 103.318 63.4561 102.417C61.9664 101.523 60.076 101.075 57.785 101.075H49.5521V101.075ZM54.0156 104.774H57.1925C58.592 104.774 59.7318 105.06 60.629 105.645C61.5603 106.264 62.2629 107.18 62.6266 108.248C63.0724 109.401 63.2925 110.84 63.2925 112.566C63.3099 113.71 63.181 114.851 62.9087 115.961C62.7077 116.836 62.3312 117.659 61.8027 118.38C61.3118 119.023 60.6613 119.522 59.918 119.825C59.0471 120.156 58.1222 120.316 57.1925 120.295H54.0156V104.774V104.774ZM75.1368 114.883V124.005H70.679V101.075H85.057V104.82H75.1368V111.224H84.1992V114.883H75.1368V114.883Z" fill="#252525"/>
</svg>
