<svg version="1.1" xmlns="http://www.w3.org/2000/svg" viewBox="0 0 751.1063125071561 707.305187210138" width="751.1063125071561" height="707.305187210138">
  <!-- svg-source:excalidraw -->
  
  <defs>
    <style>
      @font-face {
        font-family: "Virgil";
        src: url("https://excalidraw.com/Virgil.woff2");
      }
      @font-face {
        font-family: "Cascadia";
        src: url("https://excalidraw.com/Cascadia.woff2");
      }
    </style>
  </defs>
  <rect x="0" y="0" width="751.1063125071561" height="707.305187210138" fill="#ffffff"></rect><g stroke-linecap="round" transform="translate(10 10) rotate(0 365.55315625357804 343.652593605069)"><path d="M0 0 C188.87 0, 377.73 0, 731.11 0 M0 0 C219.67 0, 439.33 0, 731.11 0 M731.11 0 C731.11 176.86, 731.11 353.73, 731.11 687.31 M731.11 0 C731.11 196.74, 731.11 393.48, 731.11 687.31 M731.11 687.31 C445.74 687.31, 160.37 687.31, 0 687.31 M731.11 687.31 C544.19 687.31, 357.28 687.31, 0 687.31 M0 687.31 C0 417.03, 0 146.75, 0 0 M0 687.31 C0 424.19, 0 161.08, 0 0" stroke="#000000" stroke-width="1" fill="none"></path></g><g stroke-linecap="round" transform="translate(76.07457982226492 335.4853291574401) rotate(1.1894979378569253 72.208399058476 161.41044165742625)"><path d="M36.1 0 M36.1 0 C63.23 0.11, 90.28 -0.19, 108.31 0 M36.1 0 C62.17 0.03, 86 0.2, 108.31 0 M108.31 0 C133.74 0.95, 146.03 10.42, 144.42 36.1 M108.31 0 C133.8 -2.23, 144.67 11.69, 144.42 36.1 M144.42 36.1 C142.21 98.97, 143.69 163.58, 144.42 286.72 M144.42 36.1 C142.25 119.38, 142.51 201.32, 144.42 286.72 M144.42 286.72 C144.97 310.88, 131.02 322.75, 108.31 322.82 M144.42 286.72 C146.71 310.1, 130.82 322.2, 108.31 322.82 M108.31 322.82 C80.44 322.06, 53.93 321.35, 36.1 322.82 M108.31 322.82 C85.27 322.24, 61.82 322.26, 36.1 322.82 M36.1 322.82 C12.97 322.73, 0.11 309.67, 0 286.72 M36.1 322.82 C12.8 322.6, 1.66 310.74, 0 286.72 M0 286.72 C1.98 222.6, 2.66 160, 0 36.1 M0 286.72 C-0.14 230.19, 0.21 173.57, 0 36.1 M0 36.1 C-0.2 13.89, 13.29 -1.48, 36.1 0 M0 36.1 C2.24 10.56, 10.29 -0.94, 36.1 0" stroke="#000000" stroke-width="1" fill="none"></path></g><g stroke-linecap="round"><g transform="translate(82.3118937382485 365.9095921444879) rotate(1.1894979378569253 70.66408028767802 -0.2834804446900705)"><path d="M-0.25 0.03 C23.25 -0.12, 117.75 -0.83, 141.57 -1.01 M1.83 -1 C25.06 -0.95, 116.94 0.25, 140.35 0.44" stroke="#000000" stroke-width="1" fill="none"></path></g></g><g stroke-linecap="round" transform="translate(536.0001731974229 326.5087589585026) rotate(1.1894979378569253 71.07453820495482 90.67314288232143)"><path d="M35.54 0 M35.54 0 C61.45 -2.27, 88.61 -0.23, 106.61 0 M35.54 0 C61.63 0.1, 85.72 -0.88, 106.61 0 M106.61 0 C131.37 -0.39, 140.96 13.3, 142.15 35.54 M106.61 0 C132.59 -2.24, 142.15 11.95, 142.15 35.54 M142.15 35.54 C140.73 63.76, 143.32 91.26, 142.15 145.81 M142.15 35.54 C141.9 74.73, 142.66 115.37, 142.15 145.81 M142.15 145.81 C142.36 168.42, 129.92 180.61, 106.61 181.35 M142.15 145.81 C139.87 171.33, 131.34 180.96, 106.61 181.35 M106.61 181.35 C88.98 181.34, 68.25 182.06, 35.54 181.35 M106.61 181.35 C80.1 181.74, 51.34 181.64, 35.54 181.35 M35.54 181.35 C10.49 182.71, 1.71 169.56, 0 145.81 M35.54 181.35 C12.83 183.06, 0.63 171.38, 0 145.81 M0 145.81 C-0.43 118.33, -0.71 85.01, 0 35.54 M0 145.81 C-0.11 101.97, -0.77 58.91, 0 35.54 M0 35.54 C-0.92 12.77, 12.65 -1.49, 35.54 0 M0 35.54 C-1.32 11.23, 11.34 1.29, 35.54 0" stroke="#000000" stroke-width="1" fill="none"></path></g><g stroke-linecap="round"><g transform="translate(540.1678350847998 356.76607910208077) rotate(1.1894979378569253 69.99564647192653 -0.048128481823113134)"><path d="M-0.92 -1.06 C22.1 -1.31, 115.19 -0.65, 138.78 -0.67 M0.8 1 C24.11 0.89, 117.68 1.13, 140.91 0.96" stroke="#000000" stroke-width="1" fill="none"></path></g></g><g stroke-linecap="round" transform="translate(309.4131358129638 536.2517257795894) rotate(1.1894979378569253 74.55316784773072 58.96970737983176)"><path d="M29.48 0 M29.48 0 C57.85 -2.8, 83.51 0.5, 119.62 0 M29.48 0 C61.5 -1.26, 94.11 0.13, 119.62 0 M119.62 0 C139.65 -1.38, 150.3 11.45, 149.11 29.48 M119.62 0 C137.75 -0.89, 147.02 9.71, 149.11 29.48 M149.11 29.48 C150.78 44.14, 150.44 56.98, 149.11 88.45 M149.11 29.48 C149.4 51.69, 148.9 73.34, 149.11 88.45 M149.11 88.45 C149.94 108.9, 139.65 117.2, 119.62 117.94 M149.11 88.45 C150.77 107.52, 138.18 117.36, 119.62 117.94 M119.62 117.94 C100.53 118.69, 82.61 119.09, 29.48 117.94 M119.62 117.94 C85.3 118.56, 51.39 118.29, 29.48 117.94 M29.48 117.94 C8.54 118.91, -1.93 107.52, 0 88.45 M29.48 117.94 C9.69 117.68, -0.46 109.03, 0 88.45 M0 88.45 C-1.12 71.53, 0.96 57.45, 0 29.48 M0 88.45 C-0.48 64.92, 0.41 42.4, 0 29.48 M0 29.48 C-1.58 10.54, 11.03 -1.23, 29.48 0 M0 29.48 C-1.14 7.93, 8.29 2.29, 29.48 0" stroke="#000000" stroke-width="1" fill="none"></path></g><g stroke-linecap="round"><g transform="translate(313.3037469454338 567.9821538292884) rotate(1.1894979378569253 73.4454473717322 -0.5169004053591948)"><path d="M0.92 -1.2 C25.56 -1.39, 122.52 -0.21, 146.94 -0.11 M-0.05 0.79 C24.52 0.77, 121.59 -1.84, 146.11 -1.82" stroke="#000000" stroke-width="1" fill="none"></path></g></g><g transform="translate(132.16266006663716 339.0618250573599) rotate(0 22 10)"><text x="0" y="14" font-family="Virgil, Segoe UI Emoji" font-size="16px" fill="#000000" text-anchor="start" style="white-space: pre;" direction="ltr">users</text></g><g transform="translate(358.12885877152655 94.86726533270092) rotate(0 43 10)"><text x="0" y="14" font-family="Virgil, Segoe UI Emoji" font-size="16px" fill="#000000" text-anchor="start" style="white-space: pre;" direction="ltr">job_offers</text></g><g transform="translate(567.3035525009328 334.0755467981365) rotate(0 38 10)"><text x="0" y="14" font-family="Virgil, Segoe UI Emoji" font-size="16px" fill="#000000" text-anchor="start" style="white-space: pre;" direction="ltr">companies</text></g><g transform="translate(345.6525568208274 543.4488512427815) rotate(0 27 10)"><text x="0" y="14" font-family="Virgil, Segoe UI Emoji" font-size="16px" fill="#000000" text-anchor="start" style="white-space: pre;" direction="ltr">follows</text></g><g stroke-linecap="round" transform="translate(264.2293180154078 89.65580353504674) rotate(0 135.06076049804688 95.66861181619285)"><path d="M47.83 0 M47.83 0 C107.96 -0.31, 166.1 -0.9, 222.29 0 M47.83 0 C87.01 -1.22, 126.6 -0.68, 222.29 0 M222.29 0 C256.08 0.83, 270.44 13.99, 270.12 47.83 M222.29 0 C255.74 1.83, 268.29 14.91, 270.12 47.83 M270.12 47.83 C270.85 75.07, 270.85 99.38, 270.12 143.5 M270.12 47.83 C271.35 85.09, 271.98 122.61, 270.12 143.5 M270.12 143.5 C268.68 174.38, 253.21 191.17, 222.29 191.34 M270.12 143.5 C269.26 175.54, 252.95 192.5, 222.29 191.34 M222.29 191.34 C154.14 189.2, 89.67 191.19, 47.83 191.34 M222.29 191.34 C180.91 190.39, 137.31 190.38, 47.83 191.34 M47.83 191.34 C14.01 193.21, 0.07 174.74, 0 143.5 M47.83 191.34 C16.21 191.43, -0.34 177.17, 0 143.5 M0 143.5 C1.66 111.63, 1.42 77.83, 0 47.83 M0 143.5 C1.23 114.17, 1.21 84.71, 0 47.83 M0 47.83 C0.62 17.29, 17.52 -0.13, 47.83 0 M0 47.83 C-1.47 15.64, 18.05 1.88, 47.83 0" stroke="#000000" stroke-width="1" fill="none"></path></g><g stroke-linecap="round"><g transform="translate(266.7481118821564 127.69829558861636) rotate(0 134.4996351433872 -1.1700762175023556)"><path d="M0.64 -0.13 C45.58 -0.51, 224.84 -1.88, 269.48 -2.21 M-0.48 -1.25 C44.32 -1.47, 223.34 -0.97, 268.58 -0.92" stroke="#000000" stroke-width="1" fill="none"></path></g></g><g transform="translate(569.4446614017307 163.8656438942056) rotate(0 18.5 10)"><text x="0" y="14" font-family="Virgil, Segoe UI Emoji" font-size="16px" fill="#000000" text-anchor="start" style="white-space: pre;" direction="ltr">1 .. n</text></g><g transform="translate(506.854122006344 586.6698462340698) rotate(0 18.5 10)"><text x="0" y="14" font-family="Virgil, Segoe UI Emoji" font-size="16px" fill="#000000" text-anchor="start" style="white-space: pre;" direction="ltr">1 .. n</text></g><g transform="translate(233.97137620987405 584.2045827420689) rotate(0 18.5 10)"><text x="0" y="14" font-family="Virgil, Segoe UI Emoji" font-size="16px" fill="#000000" text-anchor="start" style="white-space: pre;" direction="ltr">1 .. n</text></g><g transform="translate(181.07799669767428 168.06188056216456) rotate(0 22 10.5)"><text x="0" y="14" font-family="Virgil, Segoe UI Emoji" font-size="16.756383483412936px" fill="#000000" text-anchor="start" style="white-space: pre;" direction="ltr">n .. n</text></g><g stroke-linecap="round"><g transform="translate(535.8324764583421 184.61353991491347) rotate(0 38.42273253005828 1.3116405366908452)"><path d="M0 0 C12.81 0.44, 64.04 2.19, 76.85 2.62 M0 0 C12.81 0.44, 64.04 2.19, 76.85 2.62" stroke="#000000" stroke-width="1" fill="none"></path></g></g><g stroke-linecap="round"><g transform="translate(159.3927885195567 189.21268679930202) rotate(0 51.5985557986225 0.8776455571583455)"><path d="M0 0 C17.2 0.29, 86 1.46, 103.2 1.76 M0 0 C17.2 0.29, 86 1.46, 103.2 1.76" stroke="#000000" stroke-width="1" fill="none"></path></g></g><g stroke-linecap="round"><g transform="translate(614.4267538887999 187.33972540189336) rotate(0 -1.3630458550875346 69.95488612216968)"><path d="M0 0 C-0.45 23.32, -2.27 116.59, -2.73 139.91 M0 0 C-0.45 23.32, -2.27 116.59, -2.73 139.91" stroke="#000000" stroke-width="1" fill="none"></path></g></g><g stroke-linecap="round"><g transform="translate(158.57042435412734 189.69687254047025) rotate(0 -1.427482440832705 73.26193115009731)"><path d="M0 0 C-0.48 24.42, -2.38 122.1, -2.85 146.52 M0 0 C-0.48 24.42, -2.38 122.1, -2.85 146.52" stroke="#000000" stroke-width="1" fill="none"></path></g></g><g stroke-linecap="round"><g transform="translate(536.706851384578 173.40017850300404) rotate(0 6.660903913975744 5.426629241092769)"><path d="M0 0 C2.22 1.81, 11.1 9.04, 13.32 10.85 M0 0 C2.22 1.81, 11.1 9.04, 13.32 10.85" stroke="#000000" stroke-width="1" fill="none"></path></g></g><g stroke-linecap="round"><g transform="translate(248.88564044020973 192.39575307649216) rotate(0 6.718592754420854 5.966076526686081)"><path d="M0 0 C2.24 1.99, 11.2 9.94, 13.44 11.93 M0 0 C2.24 1.99, 11.2 9.94, 13.44 11.93" stroke="#000000" stroke-width="1" fill="none"></path></g></g><g stroke-linecap="round"><g transform="translate(153.3717739525148 321.08534651147244) rotate(0 -4.740628426469982 7.234398533758025)"><path d="M0 0 C-1.58 2.41, -7.9 12.06, -9.48 14.47 M0 0 C-1.58 2.41, -7.9 12.06, -9.48 14.47" stroke="#000000" stroke-width="1" fill="none"></path></g></g><g stroke-linecap="round"><g transform="translate(157.63875049452793 321.8453792122537) rotate(0 6.718592754420854 5.9660765266860665)"><path d="M0 0 C2.24 1.99, 11.2 9.94, 13.44 11.93 M0 0 C2.24 1.99, 11.2 9.94, 13.44 11.93" stroke="#000000" stroke-width="1" fill="none"></path></g></g><g stroke-linecap="round"><g transform="translate(548.7943689101791 185.487977359019) rotate(0 -6.146600658528996 4.423623797859278)"><path d="M0 0 C-2.05 1.47, -10.24 7.37, -12.29 8.85 M0 0 C-2.05 1.47, -10.24 7.37, -12.29 8.85" stroke="#000000" stroke-width="1" fill="none"></path></g></g><g stroke-linecap="round"><g transform="translate(262.4830499670396 181.15571867191497) rotate(0 -6.437174859606898 4.632746046455097)"><path d="M0 0 C-2.15 1.54, -10.73 7.72, -12.87 9.27 M0 0 C-2.15 1.54, -10.73 7.72, -12.87 9.27" stroke="#000000" stroke-width="1" fill="none"></path></g></g><g stroke-linecap="round"><g transform="translate(538.2500648431259 388.6543370951925) rotate(0 68.56428551599254 1.388803217422037)"><path d="M0 0 C22.85 0.46, 114.27 2.31, 137.13 2.78 M0 0 C22.85 0.46, 114.27 2.31, 137.13 2.78" stroke="#000000" stroke-width="1" fill="none"></path></g></g><g stroke-linecap="round"><g transform="translate(317.55186799324554 596.1125665749412) rotate(0 68.56428551599254 1.388803217422037)"><path d="M0 0 C22.85 0.46, 114.27 2.31, 137.13 2.78 M0 0 C22.85 0.46, 114.27 2.31, 137.13 2.78" stroke="#000000" stroke-width="1" fill="none"></path></g></g><g stroke-linecap="round"><g transform="translate(80.550599590405 396.5637920102448) rotate(0 68.56428551599254 1.388803217422037)"><path d="M0 0 C22.85 0.46, 114.27 2.31, 137.13 2.78 M0 0 C22.85 0.46, 114.27 2.31, 137.13 2.78" stroke="#000000" stroke-width="1" fill="none"></path></g></g><g stroke-linecap="round"><g transform="translate(268.161110966891 154.0451250654604) rotate(0 131.18738338067124 -1.508755568852564)"><path d="M0 0 C43.73 -0.5, 218.65 -2.51, 262.37 -3.02 M0 0 C43.73 -0.5, 218.65 -2.51, 262.37 -3.02" stroke="#000000" stroke-width="1" fill="none"></path></g></g><g stroke-linecap="round"><g transform="translate(267.87971552976535 183.1597684726978) rotate(0 131.18738338067124 -1.508755568852564)"><path d="M0 0 C43.73 -0.5, 218.65 -2.51, 262.37 -3.02 M0 0 C43.73 -0.5, 218.65 -2.51, 262.37 -3.02" stroke="#000000" stroke-width="1" fill="none"></path></g></g><g stroke-linecap="round"><g transform="translate(272.0380200316655 210.63861785553598) rotate(0 131.18738338067124 -1.508755568852564)"><path d="M0 0 C43.73 -0.5, 218.65 -2.51, 262.37 -3.02 M0 0 C43.73 -0.5, 218.65 -2.51, 262.37 -3.02" stroke="#000000" stroke-width="1" fill="none"></path></g></g><g stroke-linecap="round"><g transform="translate(269.93400764680416 246.29609654628103) rotate(0 131.18738338067124 -1.508755568852564)"><path d="M0 0 C43.73 -0.5, 218.65 -2.51, 262.37 -3.02 M0 0 C43.73 -0.5, 218.65 -2.51, 262.37 -3.02" stroke="#000000" stroke-width="1" fill="none"></path></g></g><g stroke-linecap="round"><g transform="translate(536.5657683680851 418.6474359126359) rotate(0 68.56428551599254 1.388803217422037)"><path d="M0 0 C22.85 0.46, 114.27 2.31, 137.13 2.78 M0 0 C22.85 0.46, 114.27 2.31, 137.13 2.78" stroke="#000000" stroke-width="1" fill="none"></path></g></g><g stroke-linecap="round"><g transform="translate(317.43031703759004 625.8625416296455) rotate(0 68.56428551599254 1.388803217422037)"><path d="M0 0 C22.85 0.46, 114.27 2.31, 137.13 2.78 M0 0 C22.85 0.46, 114.27 2.31, 137.13 2.78" stroke="#000000" stroke-width="1" fill="none"></path></g></g><g stroke-linecap="round"><g transform="translate(80.4290486347495 426.3137670649491) rotate(0 68.56428551599254 1.388803217422037)"><path d="M0 0 C22.85 0.46, 114.27 2.31, 137.13 2.78 M0 0 C22.85 0.46, 114.27 2.31, 137.13 2.78" stroke="#000000" stroke-width="1" fill="none"></path></g></g><g stroke-linecap="round"><g transform="translate(536.3637000996183 446.688673011102) rotate(0 68.56428551599254 1.388803217422037)"><path d="M0 0 C22.85 0.46, 114.27 2.31, 137.13 2.78 M0 0 C22.85 0.46, 114.27 2.31, 137.13 2.78" stroke="#000000" stroke-width="1" fill="none"></path></g></g><g stroke-linecap="round"><g transform="translate(78.341129700387 455.1020914068163) rotate(0 68.56428551599254 1.388803217422037)"><path d="M0 0 C22.85 0.46, 114.27 2.31, 137.13 2.78 M0 0 C22.85 0.46, 114.27 2.31, 137.13 2.78" stroke="#000000" stroke-width="1" fill="none"></path></g></g><g stroke-linecap="round"><g transform="translate(534.8813078434436 476.68540686397665) rotate(0 68.56428551599254 1.388803217422037)"><path d="M0 0 C22.85 0.46, 114.27 2.31, 137.13 2.78 M0 0 C22.85 0.46, 114.27 2.31, 137.13 2.78" stroke="#000000" stroke-width="1" fill="none"></path></g></g><g stroke-linecap="round"><g transform="translate(79.35299190996466 485.078601083615) rotate(0 68.56428551599254 1.388803217422037)"><path d="M0 0 C22.85 0.46, 114.27 2.31, 137.13 2.78 M0 0 C22.85 0.46, 114.27 2.31, 137.13 2.78" stroke="#000000" stroke-width="1" fill="none"></path></g></g><g stroke-linecap="round"><g transform="translate(79.6416791105197 513.7259951166617) rotate(0 68.56428551599254 1.388803217422037)"><path d="M0 0 C22.85 0.46, 114.27 2.31, 137.13 2.78 M0 0 C22.85 0.46, 114.27 2.31, 137.13 2.78" stroke="#000000" stroke-width="1" fill="none"></path></g></g><g stroke-linecap="round"><g transform="translate(80.99342429097635 538.4370259409922) rotate(0 68.56428551599254 1.388803217422037)"><path d="M0 0 C22.85 0.46, 114.27 2.31, 137.13 2.78 M0 0 C22.85 0.46, 114.27 2.31, 137.13 2.78" stroke="#000000" stroke-width="1" fill="none"></path></g></g><g stroke-linecap="round"><g transform="translate(78.35148194111093 565.331724039172) rotate(0 68.56428551599254 1.388803217422037)"><path d="M0 0 C22.85 0.46, 114.27 2.31, 137.13 2.78 M0 0 C22.85 0.46, 114.27 2.31, 137.13 2.78" stroke="#000000" stroke-width="1" fill="none"></path></g></g><g stroke-linecap="round"><g transform="translate(79.4228382252852 593.7738549378263) rotate(0 68.56428551599254 1.388803217422037)"><path d="M0 0 C22.85 0.46, 114.27 2.31, 137.13 2.78 M0 0 C22.85 0.46, 114.27 2.31, 137.13 2.78" stroke="#000000" stroke-width="1" fill="none"></path></g></g><g stroke-linecap="round"><g transform="translate(76.43555656477997 623.6069705991805) rotate(0 68.56428551599254 1.388803217422037)"><path d="M0 0 C22.85 0.46, 114.27 2.31, 137.13 2.78 M0 0 C22.85 0.46, 114.27 2.31, 137.13 2.78" stroke="#000000" stroke-width="1" fill="none"></path></g></g><g transform="translate(553.7399173338246 364.7418155195692) rotate(0 7.5 10)"><text x="0" y="14" font-family="Virgil, Segoe UI Emoji" font-size="16px" fill="#000000" text-anchor="start" style="white-space: pre;" direction="ltr">id</text></g><g transform="translate(335.78522019410514 568.5859384545176) rotate(0 30.5 10)"><text x="0" y="14" font-family="Virgil, Segoe UI Emoji" font-size="16px" fill="#000000" text-anchor="start" style="white-space: pre;" direction="ltr">user_id</text></g><g transform="translate(98.7839517912646 372.0956418874412) rotate(0 7.5 10)"><text x="0" y="14" font-family="Virgil, Segoe UI Emoji" font-size="16px" fill="#000000" text-anchor="start" style="white-space: pre;" direction="ltr">id</text></g><g transform="translate(288.4507933772891 131.11921549951722) rotate(0 7.5 10)"><text x="0" y="14" font-family="Virgil, Segoe UI Emoji" font-size="16px" fill="#000000" text-anchor="start" style="white-space: pre;" direction="ltr">id</text></g><g transform="translate(282.7482670283773 158.27091175771045) rotate(0 44 10)"><text x="0" y="14" font-family="Virgil, Segoe UI Emoji" font-size="16px" fill="#000000" text-anchor="start" style="white-space: pre;" direction="ltr">company_id</text></g><g transform="translate(282.70054225129354 186.5442271841024) rotate(0 18.5 10)"><text x="0" y="14" font-family="Virgil, Segoe UI Emoji" font-size="16px" fill="#000000" text-anchor="start" style="white-space: pre;" direction="ltr">title</text></g><g transform="translate(283.6341916446223 216.6868794896514) rotate(0 42 10)"><text x="0" y="14" font-family="Virgil, Segoe UI Emoji" font-size="16px" fill="#000000" text-anchor="start" style="white-space: pre;" direction="ltr">description</text></g><g transform="translate(283.4462644715136 250.6151526943288) rotate(0 36 10)"><text x="0" y="14" font-family="Virgil, Segoe UI Emoji" font-size="16px" fill="#000000" text-anchor="start" style="white-space: pre;" direction="ltr">aplicants</text></g><g transform="translate(551.0408846212209 395.6140035965108) rotate(0 19.5 10)"><text x="0" y="14" font-family="Virgil, Segoe UI Emoji" font-size="16px" fill="#000000" text-anchor="start" style="white-space: pre;" direction="ltr">name</text></g><g transform="translate(333.0861874815015 602.5166045290794) rotate(0 44 10)"><text x="0" y="14" font-family="Virgil, Segoe UI Emoji" font-size="16px" fill="#000000" text-anchor="start" style="white-space: pre;" direction="ltr">company_id</text></g><g transform="translate(332.1266150721358 629.5931679353216) rotate(0 28.5 10)"><text x="0" y="14" font-family="Virgil, Segoe UI Emoji" font-size="16px" fill="#000000" text-anchor="start" style="white-space: pre;" direction="ltr">status</text></g><g transform="translate(96.08491907866096 402.9678299643829) rotate(0 19.5 10)"><text x="0" y="14" font-family="Virgil, Segoe UI Emoji" font-size="16px" fill="#000000" text-anchor="start" style="white-space: pre;" direction="ltr">name</text></g><g transform="translate(548.3146735366719 425.76934918045515) rotate(0 19.5 10)"><text x="0" y="14" font-family="Virgil, Segoe UI Emoji" font-size="16px" fill="#000000" text-anchor="start" style="white-space: pre;" direction="ltr">email</text></g><g transform="translate(92.87254488660665 433.8177244226109) rotate(0 19.5 10)"><text x="0" y="14" font-family="Virgil, Segoe UI Emoji" font-size="16px" fill="#000000" text-anchor="start" style="white-space: pre;" direction="ltr">email</text></g><g transform="translate(547.257489832129 451.5590597306646) rotate(0 36.5 10)"><text x="0" y="14" font-family="Virgil, Segoe UI Emoji" font-size="16px" fill="#000000" text-anchor="start" style="white-space: pre;" direction="ltr">password</text></g><g transform="translate(91.81536118206373 459.6074349728204) rotate(0 36.5 10)"><text x="0" y="14" font-family="Virgil, Segoe UI Emoji" font-size="16px" fill="#000000" text-anchor="start" style="white-space: pre;" direction="ltr">password</text></g><g transform="translate(546.4814377378517 480.769088606268) rotate(0 41.5 10)"><text x="0" y="14" font-family="Virgil, Segoe UI Emoji" font-size="16px" fill="#000000" text-anchor="start" style="white-space: pre;" direction="ltr">profile_url</text></g><g transform="translate(90.55089120049945 489.19098863910176) rotate(0 41.5 10)"><text x="0" y="14" font-family="Virgil, Segoe UI Emoji" font-size="16px" fill="#000000" text-anchor="start" style="white-space: pre;" direction="ltr">profile_url</text></g><g transform="translate(89.2880763424306 519.5910087631876) rotate(0 53 10)"><text x="0" y="14" font-family="Virgil, Segoe UI Emoji" font-size="16px" fill="#000000" text-anchor="start" style="white-space: pre;" direction="ltr">document_url</text></g><g transform="translate(90.63982152288725 544.302039587518) rotate(0 24 10)"><text x="0" y="14" font-family="Virgil, Segoe UI Emoji" font-size="16px" fill="#000000" text-anchor="start" style="white-space: pre;" direction="ltr">about</text></g><g transform="translate(87.99787917302183 570.6882047760257) rotate(0 19.5 10)"><text x="0" y="14" font-family="Virgil, Segoe UI Emoji" font-size="16px" fill="#000000" text-anchor="start" style="white-space: pre;" direction="ltr">skills</text></g><g transform="translate(89.06922121047603 600.0572921780541) rotate(0 44 10)"><text x="0" y="14" font-family="Virgil, Segoe UI Emoji" font-size="16px" fill="#000000" text-anchor="start" style="white-space: pre;" direction="ltr">experiences</text></g><g transform="translate(88.42620886898294 627.9445907915518) rotate(0 42.5 10)"><text x="0" y="14" font-family="Virgil, Segoe UI Emoji" font-size="16px" fill="#000000" text-anchor="start" style="white-space: pre;" direction="ltr">educations</text></g><g transform="translate(43.79756886678672 39.94876895119069) rotate(0 126.5 18)"><text x="0" y="25" font-family="Virgil, Segoe UI Emoji" font-size="28px" fill="#000000" text-anchor="start" style="white-space: pre;" direction="ltr">LinkedIn_clone_db</text></g><g stroke-linecap="round"><g transform="translate(219.3050181517434 609.5322077735613) rotate(0 45.198235848663046 0.3893176960873461)"><path d="M0 0 C15.07 0.13, 75.33 0.65, 90.4 0.78 M0 0 C15.07 0.13, 75.33 0.65, 90.4 0.78" stroke="#000000" stroke-width="1" fill="none"></path></g></g><g stroke-linecap="round"><g transform="translate(294.0946958470163 609.8262764176906) rotate(0 7.048192861541565 4.287549822623987)"><path d="M0 0 C2.35 1.43, 11.75 7.15, 14.1 8.58 M0 0 C2.35 1.43, 11.75 7.15, 14.1 8.58" stroke="#000000" stroke-width="1" fill="none"></path></g></g><g stroke-linecap="round"><g transform="translate(309.65945062120306 595.0841909490081) rotate(0 -7.3125050017384865 6.739656178238079)"><path d="M0 0 C-2.44 2.25, -12.19 11.23, -14.63 13.48 M0 0 C-2.44 2.25, -12.19 11.23, -14.63 13.48" stroke="#000000" stroke-width="1" fill="none"></path></g></g><g stroke-linecap="round"><g transform="translate(610.6660369858317 511.9076162526503) rotate(0 -74.4860147627727 49.60534476759693)"><path d="M0 0 C0.4 8.54, 2.65 35.53, 2.39 51.25 C2.12 66.97, 6.38 86.41, -1.59 94.3 C-9.55 102.19, -30.08 97.78, -45.4 98.58 C-60.72 99.38, -75.68 99.24, -93.49 99.1 C-111.3 98.95, -142.46 97.95, -152.26 97.71 M0 0 C0.4 8.54, 2.65 35.53, 2.39 51.25 C2.12 66.97, 6.38 86.41, -1.59 94.3 C-9.55 102.19, -30.08 97.78, -45.4 98.58 C-60.72 99.38, -75.68 99.24, -93.49 99.1 C-111.3 98.95, -142.46 97.95, -152.26 97.71" stroke="#000000" stroke-width="1" fill="none"></path></g></g><g stroke-linecap="round"><g transform="translate(460.432232986842 599.4598329204513) rotate(0 5.594630621911506 10.234296350575676)"><path d="M0 0 C1.86 1.8, 11.14 7.4, 11.19 10.81 C11.24 14.22, 2.13 18.86, 0.32 20.47 M0 0 C1.86 1.8, 11.14 7.4, 11.19 10.81 C11.24 14.22, 2.13 18.86, 0.32 20.47" stroke="#000000" stroke-width="1" fill="none"></path></g></g></svg>